<?xml version="1.0" encoding="UTF-8" standalone="no"?>
<!-- Created with Inkscape (http://www.inkscape.org/) -->

<svg
   xmlns:dc="http://purl.org/dc/elements/1.1/"
   xmlns:cc="http://creativecommons.org/ns#"
   xmlns:rdf="http://www.w3.org/1999/02/22-rdf-syntax-ns#"
   xmlns:svg="http://www.w3.org/2000/svg"
   xmlns="http://www.w3.org/2000/svg"
   xmlns:sodipodi="http://sodipodi.sourceforge.net/DTD/sodipodi-0.dtd"
   xmlns:inkscape="http://www.inkscape.org/namespaces/inkscape"
   width="100"
   height="100"
   viewBox="0 0 26.458333 26.458334"
   version="1.1"
   id="svg8"
   inkscape:version="0.92.2 (5c3e80d, 2017-08-06)"
   sodipodi:docname="hide.svg">
  <defs
     id="defs2" />
  <sodipodi:namedview
     id="base"
     pagecolor="#ffffff"
     bordercolor="#666666"
     borderopacity="1.0"
     inkscape:pageopacity="0.0"
     inkscape:pageshadow="2"
     inkscape:zoom="5.6"
     inkscape:cx="24.882072"
     inkscape:cy="47.407298"
     inkscape:document-units="mm"
     inkscape:current-layer="layer1"
     showgrid="true"
     units="px"
     showguides="true"
     inkscape:guide-bbox="true"
     inkscape:window-width="1920"
     inkscape:window-height="1057"
     inkscape:window-x="-8"
     inkscape:window-y="-8"
     inkscape:window-maximized="1">
    <inkscape:grid
       type="xygrid"
       id="grid4504" />
    <sodipodi:guide
       position="13.229166,13.229167"
       orientation="0,1"
       id="guide4506"
       inkscape:locked="false" />
    <sodipodi:guide
       position="13.229166,13.229167"
       orientation="1,0"
       id="guide4508"
       inkscape:locked="false" />
    <sodipodi:guide
       position="19.84375,13.229167"
       orientation="1,0"
       id="guide4510"
       inkscape:locked="false" />
    <sodipodi:guide
       position="6.6145832,13.229167"
       orientation="1,0"
       id="guide4512"
       inkscape:locked="false" />
  </sodipodi:namedview>
  <metadata
     id="metadata5">
    <rdf:RDF>
      <cc:Work
         rdf:about="">
        <dc:format>image/svg+xml</dc:format>
        <dc:type
           rdf:resource="http://purl.org/dc/dcmitype/StillImage" />
        <dc:title />
      </cc:Work>
    </rdf:RDF>
  </metadata>
  <g
     inkscape:label="Layer 1"
     inkscape:groupmode="layer"
     id="layer1"
     transform="translate(0,-270.54165)">
    <path
       style="fill:none;stroke:#ffffff;stroke-width:1.305457;stroke-linecap:butt;stroke-linejoin:miter;stroke-miterlimit:4;stroke-dasharray:none;stroke-opacity:1;fill-opacity:1"
       d="m 1.3229167,283.77082 c 0,0 6.6145833,-6.48715 11.9062493,-6.44115 5.291667,0.0461 11.906251,6.44115 11.906251,6.44115 0,0 -6.614584,6.44113 -11.906251,6.44113 -5.291666,0 -11.9062493,-6.44113 -11.9062493,-6.44113 z"
       id="path4531"
       inkscape:connector-curvature="0"
       sodipodi:nodetypes="cscsc" />
    <path
       style="opacity:1;fill:#ffffff;fill-opacity:1;stroke:none;stroke-width:6.4041481;stroke-linejoin:round;stroke-miterlimit:4;stroke-dasharray:none;stroke-opacity:1"
       d="M 50 27.195312 A 22.804386 22.804389 0 0 0 34.847656 32.994141 A 12.499999 12.499999 0 0 1 40.177734 31.785156 A 12.499999 12.499999 0 0 1 52.677734 44.285156 A 12.499999 12.499999 0 0 1 40.177734 56.785156 A 12.499999 12.499999 0 0 1 27.714844 45.216797 A 22.804386 22.804389 0 0 0 27.195312 50 A 22.804386 22.804389 0 0 0 50 72.804688 A 22.804386 22.804389 0 0 0 72.804688 50 A 22.804386 22.804389 0 0 0 50 27.195312 z "
       transform="matrix(0.26458333,0,0,0.26458333,0,270.54165)"
       id="path4533" />
  </g>
</svg>
