<?xml version="1.0" encoding="UTF-8" standalone="no"?>
<!-- Generated by IcoMoon.io -->

<svg
   xmlns:dc="http://purl.org/dc/elements/1.1/"
   xmlns:cc="http://creativecommons.org/ns#"
   xmlns:rdf="http://www.w3.org/1999/02/22-rdf-syntax-ns#"
   xmlns:svg="http://www.w3.org/2000/svg"
   xmlns="http://www.w3.org/2000/svg"
   xmlns:sodipodi="http://sodipodi.sourceforge.net/DTD/sodipodi-0.dtd"
   xmlns:inkscape="http://www.inkscape.org/namespaces/inkscape"
   version="1.1"
   width="512"
   height="512"
   viewBox="0 0 512 512"
   id="svg4558"
   sodipodi:docname="save.svg"
   inkscape:version="0.92.2 (5c3e80d, 2017-08-06)">
  <metadata
     id="metadata4564">
    <rdf:RDF>
      <cc:Work
         rdf:about="">
        <dc:format>image/svg+xml</dc:format>
        <dc:type
           rdf:resource="http://purl.org/dc/dcmitype/StillImage" />
      </cc:Work>
    </rdf:RDF>
  </metadata>
  <defs
     id="defs4562" />
  <sodipodi:namedview
     pagecolor="#ffffff"
     bordercolor="#666666"
     borderopacity="1"
     objecttolerance="10"
     gridtolerance="10"
     guidetolerance="10"
     inkscape:pageopacity="0"
     inkscape:pageshadow="2"
     inkscape:window-width="1920"
     inkscape:window-height="1017"
     id="namedview4560"
     showgrid="false"
     inkscape:zoom="1.1516265"
     inkscape:cx="225.48633"
     inkscape:cy="264.15709"
     inkscape:window-x="1912"
     inkscape:window-y="-8"
     inkscape:window-maximized="1"
     inkscape:current-layer="svg4558" />
  <g
     id="g4548"
     style="fill:#ffffff" />
  <path
     d="M 449.20064,438.75457 H 117.13922 l 9.98095,4.44403 -54.340969,-60.353 3.458818,8.99573 V 59.807039 L 62.798239,73.246818 H 449.19189 L 435.75211,59.807039 V 452.20396 l 13.44853,-13.44853 z m 0,-392.38731 H 49.358461 v 350.64435 l 61.796729,68.63212 H 462.63253 V 46.36726 h -13.43102 z"
     id="path4550"
     style="fill:#ffffff;stroke-width:0.87498558"
     inkscape:connector-curvature="0" />
  <path
     d="M 386.83078,237.51661 H 123.18712 l 13.43978,13.43978 V 61.831756 L 123.18712,75.271535 H 386.82203 L 373.38226,61.831756 V 250.94764 Z m 0,-189.124633 H 109.74735 V 264.38742 H 400.26181 V 48.391977 Z"
     id="path4552"
     style="fill:#ffffff;stroke-width:0.87498558"
     inkscape:connector-curvature="0" />
  <path
     d="M 342.53376,295.89917 H 156.01658 V 459.60459 H 355.97354 V 295.89917 Z m 0,136.83461 H 169.45635 l 13.4398,13.43977 V 309.33807 l -13.4398,13.43977 h 173.07741 l -13.43977,-13.43977 v 136.82586 l 13.43977,-13.43102 z"
     id="path4554"
     style="fill:#ffffff;stroke-width:0.87498558"
     inkscape:connector-curvature="0" />
  <path
     d="m 243.93951,305.30701 h 94.5352 v 146.89695 h -94.5352 z"
     id="path4556"
     style="fill:#ffffff;stroke-width:0.87498558"
     inkscape:connector-curvature="0" />
</svg>
