<?xml version="1.0" encoding="UTF-8" standalone="no"?>
<!-- Generated by IcoMoon.io -->

<svg
   xmlns:dc="http://purl.org/dc/elements/1.1/"
   xmlns:cc="http://creativecommons.org/ns#"
   xmlns:rdf="http://www.w3.org/1999/02/22-rdf-syntax-ns#"
   xmlns:svg="http://www.w3.org/2000/svg"
   xmlns="http://www.w3.org/2000/svg"
   xmlns:sodipodi="http://sodipodi.sourceforge.net/DTD/sodipodi-0.dtd"
   xmlns:inkscape="http://www.inkscape.org/namespaces/inkscape"
   version="1.1"
   width="512"
   height="512"
   viewBox="0 0 512 512"
   id="svg4558"
   sodipodi:docname="save.svg"
   inkscape:version="0.92.2 (5c3e80d, 2017-08-06)">
  <metadata
     id="metadata4564">
    <rdf:RDF>
      <cc:Work
         rdf:about="">
        <dc:format>image/svg+xml</dc:format>
        <dc:type
           rdf:resource="http://purl.org/dc/dcmitype/StillImage" />
      </cc:Work>
    </rdf:RDF>
  </metadata>
  <defs
     id="defs4562" />
  <sodipodi:namedview
     pagecolor="#ffffff"
     bordercolor="#666666"
     borderopacity="1"
     objecttolerance="10"
     gridtolerance="10"
     guidetolerance="10"
     inkscape:pageopacity="0"
     inkscape:pageshadow="2"
     inkscape:window-width="732"
     inkscape:window-height="480"
     id="namedview4560"
     showgrid="false"
     inkscape:zoom="0.4609375"
     inkscape:cx="256"
     inkscape:cy="256"
     inkscape:window-x="0"
     inkscape:window-y="0"
     inkscape:window-maximized="0"
     inkscape:current-layer="svg4558" />
  <g
     id="g4548"
     style="fill:#ffffff" />
  <path
     d="M476.805 464.865h-379.505l11.407 5.079-62.105-68.976 3.953 10.281v-379.474l-15.36 15.36h441.6l-15.36-15.36v448.461l15.37-15.37zM476.805 16.415h-456.97v400.743l70.626 78.438h401.695v-479.181h-15.35z"
     fill="#000000"
     id="path4550"
     style="fill:#ffffff" />
  <path
     d="M405.524 234.875h-301.312l15.36 15.36v-216.146l-15.36 15.36h301.302l-15.36-15.36v216.136l15.37-15.35zM405.524 18.729h-316.672v246.856h332.022v-246.856h-15.35z"
     fill="#000000"
     id="path4552"
     style="fill:#ffffff" />
  <path
     d="M354.898 301.599h-213.166v187.095h228.526v-187.095h-15.36zM354.898 457.984h-197.806l15.36 15.36v-156.386l-15.36 15.36h197.806l-15.36-15.36v156.375l15.36-15.35z"
     fill="#000000"
     id="path4554"
     style="fill:#ffffff" />
  <path
     d="M242.217 312.351h108.042v167.885h-108.042v-167.885z"
     fill="#000000"
     id="path4556"
     style="fill:#ffffff" />
</svg>
